<?xml version="1.0" standalone="no"?>
<!DOCTYPE svg PUBLIC "-//W3C//DTD SVG 20010904//EN"
 "http://www.w3.org/TR/2001/REC-SVG-20010904/DTD/svg10.dtd">
<svg version="1.0" xmlns="http://www.w3.org/2000/svg"
 width="640.000000pt" height="640.000000pt" viewBox="0 0 640.000000 640.000000"
 preserveAspectRatio="xMidYMid meet">
<metadata>
Created by potrace 1.11, written by Peter Selinger 2001-2013
</metadata>
<g transform="translate(0.000000,640.000000) scale(0.100000,-0.100000)"
fill="#000000" stroke="none">
<path d="M2922 5753 c-16 -6 -42 -56 -42 -81 0 -26 18 -44 165 -162 71 -58
136 -112 145 -120 9 -8 31 -26 49 -40 18 -14 38 -30 44 -35 7 -6 60 -50 120
-99 59 -48 107 -91 107 -95 0 -4 -19 -14 -42 -23 -24 -9 -86 -34 -138 -56 -52
-22 -165 -69 -250 -105 -84 -35 -164 -74 -177 -85 -50 -44 -20 -111 63 -141
22 -7 57 -22 79 -32 22 -10 135 -57 250 -104 116 -48 213 -90 217 -94 4 -3 8
-301 11 -661 2 -360 6 -664 9 -675 3 -11 8 -41 12 -66 42 -292 146 -572 309
-834 141 -227 345 -443 576 -609 22 -16 39 -31 37 -33 -2 -2 -57 -6 -122 -8
-132 -5 -292 -13 -399 -20 -203 -14 -294 -20 -414 -30 -25 -2 -82 -7 -126 -10
-44 -4 -91 -8 -105 -11 -14 -2 -54 -6 -90 -9 -63 -5 -103 -9 -192 -20 -24 -3
-63 -7 -88 -10 -82 -8 -150 -16 -250 -30 -19 -2 -55 -7 -80 -10 -25 -2 -61 -7
-80 -10 -19 -2 -100 -13 -180 -25 -80 -11 -156 -22 -169 -24 -13 -3 -49 -8
-80 -12 -31 -3 -58 -8 -61 -9 -3 -2 -26 -6 -50 -10 -25 -3 -121 -19 -215 -35
-93 -16 -186 -31 -205 -35 -19 -3 -57 -10 -85 -15 -27 -5 -66 -12 -85 -15 -19
-3 -42 -8 -50 -10 -8 -2 -31 -7 -50 -10 -19 -3 -42 -8 -50 -10 -8 -2 -31 -7
-50 -10 -19 -3 -69 -13 -110 -22 -41 -8 -86 -17 -100 -20 -14 -2 -77 -15 -140
-29 -63 -14 -126 -27 -140 -30 -14 -3 -107 -22 -206 -44 -424 -92 -436 -96
-475 -178 -43 -87 -3 -194 87 -233 42 -19 107 -19 2651 -16 l2608 3 86 21 c47
12 102 28 123 37 20 8 40 16 44 17 47 10 206 93 282 147 91 64 247 223 304
310 76 118 145 269 162 357 2 11 10 53 18 94 19 96 14 319 -8 421 -43 197
-126 368 -250 515 -53 63 -71 81 -151 149 -94 80 -170 122 -730 401 -512 256
-564 284 -615 335 -125 123 -148 198 -150 495 l-1 215 78 0 c352 3 556 -1 573
-10 18 -9 158 -122 259 -208 24 -20 69 -50 100 -67 l56 -30 230 0 c266 0 295
6 378 84 41 38 66 79 145 238 91 184 95 195 98 265 2 58 -2 85 -19 128 -25 61
-780 1076 -835 1122 -17 14 -52 36 -79 49 l-48 24 -1240 2 c-682 1 -1246 -1
-1253 -4z m2058 -677 c35 -7 342 -85 357 -91 10 -3 10 -10 1 -32 -41 -95 -130
-154 -227 -149 -68 3 -119 26 -166 74 -40 41 -56 82 -59 150 -4 66 0 72 37 61
18 -4 43 -10 57 -13z"/>
<path d="M1494 4780 c-69 -18 -159 -59 -217 -98 -16 -11 -305 -293 -642 -627
-457 -452 -617 -616 -626 -642 -37 -112 58 -224 176 -209 33 5 118 20 365 65
91 17 179 33 195 36 17 3 68 12 115 21 147 27 282 52 375 69 50 9 110 20 135
25 25 6 59 12 75 14 40 7 85 15 115 21 14 3 41 8 60 11 19 3 91 16 160 29 69
13 126 23 127 21 3 -3 -35 -32 -485 -370 -232 -174 -430 -329 -439 -343 -23
-34 -25 -111 -6 -152 9 -18 32 -44 51 -59 l35 -27 1139 -2 c626 -1 1138 1
1138 6 0 5 -15 60 -34 122 -86 289 -104 442 -105 880 l-1 247 -87 63 c-49 35
-146 106 -218 159 -495 365 -874 640 -925 671 -95 57 -179 81 -300 85 -79 2
-123 -2 -176 -16z"/>
</g>
</svg>
